<svg width="24" height="25" viewBox="0 0 24 25" fill="none" xmlns="http://www.w3.org/2000/svg">
<path fill-rule="evenodd" clip-rule="evenodd" d="M8.2051 3.21387H14.5593L18.9583 7.6129V18.8549C18.9583 19.1142 18.8553 19.3628 18.672 19.5461C18.4887 19.7295 18.24 19.8324 17.9807 19.8324H8.2051C7.94584 19.8324 7.69719 19.7295 7.51386 19.5461C7.33053 19.3628 7.22754 19.1142 7.22754 18.8549V4.19143C7.22754 3.93216 7.33053 3.68352 7.51386 3.50019C7.69719 3.31686 7.94584 3.21387 8.2051 3.21387ZM17.492 7.6129L14.5593 4.68021V7.12412C14.5593 7.25375 14.6108 7.37808 14.7024 7.46974C14.7941 7.56141 14.9184 7.6129 15.048 7.6129H17.492ZM16.3712 11.1776C16.4628 11.2692 16.5143 11.3936 16.5143 11.5232C16.5143 11.6528 16.4628 11.7771 16.3712 11.8687L12.1154 16.1245L9.81466 13.8239C9.72563 13.7317 9.67636 13.6082 9.67747 13.48C9.67859 13.3519 9.72999 13.2293 9.82062 13.1387C9.91124 13.048 10.0338 12.9966 10.162 12.9955C10.2901 12.9944 10.4136 13.0437 10.5058 13.1327L12.1154 14.7423L15.68 11.1776C15.7717 11.086 15.896 11.0345 16.0256 11.0345C16.1552 11.0345 16.2795 11.086 16.3712 11.1776V11.1776Z" fill="white"/>
<path d="M6.25002 6.14648H5.27246V19.3436C5.27246 19.9918 5.52994 20.6134 5.98827 21.0717C6.44659 21.53 7.0682 21.7875 7.71637 21.7875H17.0032V20.8099H7.71637C7.32747 20.8099 6.9545 20.6554 6.67951 20.3805C6.40451 20.1055 6.25002 19.7325 6.25002 19.3436V6.14648Z" fill="white"/>
</svg>
