<svg width="22" height="19" viewBox="0 0 22 19" fill="none" xmlns="http://www.w3.org/2000/svg">
<g clip-path="url(#clip0_184_121)">
<path d="M21.1689 12.7447H20.6305V9.09052C20.6305 8.66121 20.4588 8.2488 20.156 7.94456L16.7939 4.56753C16.4911 4.2633 16.0805 4.09089 15.6531 4.09089H14.1689V2.4683C14.1689 1.57249 13.4454 0.845703 12.5536 0.845703H3.93817C3.04635 0.845703 2.32279 1.57249 2.32279 2.4683V4.09089H0.438176C0.290099 4.09089 0.168945 4.21259 0.168945 4.36133V4.90219C0.168945 5.05093 0.290099 5.17263 0.438176 5.17263H9.59202C9.7401 5.17263 9.86125 5.29432 9.86125 5.44306V5.98392C9.86125 6.13266 9.7401 6.25436 9.59202 6.25436H1.5151C1.36702 6.25436 1.24587 6.37605 1.24587 6.52479V7.06565C1.24587 7.21439 1.36702 7.33609 1.5151 7.33609H8.5151C8.66317 7.33609 8.78433 7.45778 8.78433 7.60652V8.14738C8.78433 8.29612 8.66317 8.41782 8.5151 8.41782H0.438176C0.290099 8.41782 0.168945 8.53951 0.168945 8.68825V9.22911C0.168945 9.37785 0.290099 9.49955 0.438176 9.49955H7.43817C7.58625 9.49955 7.7074 9.62124 7.7074 9.76998V10.3108C7.7074 10.4596 7.58625 10.5813 7.43817 10.5813H2.32279V14.9082C2.32279 16.6998 3.76991 18.1534 5.55356 18.1534C7.33721 18.1534 8.78433 16.6998 8.78433 14.9082H13.092C13.092 16.6998 14.5391 18.1534 16.3228 18.1534C18.1064 18.1534 19.5536 16.6998 19.5536 14.9082H21.1689C21.4651 14.9082 21.7074 14.6648 21.7074 14.3673V13.2856C21.7074 12.9881 21.4651 12.7447 21.1689 12.7447ZM5.55356 16.5308C4.66173 16.5308 3.93817 15.804 3.93817 14.9082C3.93817 14.0124 4.66173 13.2856 5.55356 13.2856C6.44538 13.2856 7.16894 14.0124 7.16894 14.9082C7.16894 15.804 6.44538 16.5308 5.55356 16.5308ZM16.3228 16.5308C15.431 16.5308 14.7074 15.804 14.7074 14.9082C14.7074 14.0124 15.431 13.2856 16.3228 13.2856C17.2146 13.2856 17.9382 14.0124 17.9382 14.9082C17.9382 15.804 17.2146 16.5308 16.3228 16.5308ZM19.0151 9.49955H14.1689V5.71349H15.6531L19.0151 9.09052V9.49955Z" fill="white"/>
</g>
<defs>
<clipPath id="clip0_184_121">
<rect width="21.5385" height="17.3077" fill="white" transform="translate(0.168945 0.845703)"/>
</clipPath>
</defs>
</svg>
